<?xml version="1.0" encoding="utf-8"?>
<!-- Generator: Adobe Illustrator 16.0.0, SVG Export Plug-In . SVG Version: 6.00 Build 0)  -->
<!DOCTYPE svg PUBLIC "-//W3C//DTD SVG 1.1//EN" "http://www.w3.org/Graphics/SVG/1.1/DTD/svg11.dtd">
<svg version="1.1" id="Layer_1" xmlns="http://www.w3.org/2000/svg" xmlns:xlink="http://www.w3.org/1999/xlink" x="0px" y="0px"
	 width="566.93px" height="566.93px" viewBox="0 0 566.93 566.93" enable-background="new 0 0 566.93 566.93" xml:space="preserve">
<rect x="35.965" y="50.499" fill="#727272" stroke="#000000" stroke-miterlimit="10" width="495" height="441"/>
<g>
	<g>
		<polygon points="283.452,187.66 183.46,354.338 383.469,354.338 		"/>
	</g>
</g>
<g>
	<g>
		<path d="M472.442,0H94.488C42.378,0,0,42.402,0,94.489v377.952c0,52.111,42.378,94.489,94.487,94.489h377.953
			c52.11,0,94.489-42.378,94.489-94.488V94.489C566.93,42.402,524.551,0,472.442,0z M445.748,389.6
			c-4.204,7.393-12.047,11.976-20.551,11.976H141.733c-8.504,0-16.37-4.583-20.552-11.976c-4.204-7.394-4.087-16.489,0.284-23.788
			l141.732-236.221c8.551-14.244,31.983-14.244,40.512,0l141.732,236.221C449.835,373.111,449.952,382.205,445.748,389.6z"/>
	</g>
</g>
</svg>
