<?xml version="1.0" encoding="utf-8"?>
<!-- Generator: Adobe Illustrator 16.0.0, SVG Export Plug-In . SVG Version: 6.00 Build 0)  -->
<!DOCTYPE svg PUBLIC "-//W3C//DTD SVG 1.1//EN" "http://www.w3.org/Graphics/SVG/1.1/DTD/svg11.dtd">
<svg version="1.1" id="Layer_1" xmlns="http://www.w3.org/2000/svg" xmlns:xlink="http://www.w3.org/1999/xlink" x="0px" y="0px"
	 width="566.93px" height="566.93px" viewBox="0 0 566.93 566.93" enable-background="new 0 0 566.93 566.93" xml:space="preserve">
<g>
	<g>
		<path fill="#FFFFFF" d="M535.062,239.007l0.885,0.193H156.583L275.841,119.68c5.84-5.835,9.043-13.74,9.043-22.036
			c0-8.297-3.203-16.146-9.043-21.995l-18.557-18.566c-5.835-5.835-13.61-9.062-21.902-9.062c-8.297,0-16.077,3.204-21.912,9.039
			L9.038,261.472C3.18,267.33-0.023,275.134,0,283.435c-0.023,8.348,3.18,16.155,9.038,22.005L213.47,509.87
			c5.835,5.83,13.61,9.038,21.912,9.038c8.292,0,16.067-3.212,21.902-9.038l18.557-18.565c5.84-5.826,9.043-13.606,9.043-21.903
			c0-8.292-3.203-15.662-9.043-21.492L155.238,327.72h380.248c17.086,0,31.444-14.727,31.444-31.803v-26.259
			C566.93,252.581,552.148,239.007,535.062,239.007z"/>
	</g>
</g>
</svg>
